<svg width="40" height="40" viewBox="0 0 40 40" fill="none" xmlns="http://www.w3.org/2000/svg">
<rect width="40" height="40" rx="10" fill="#EAEAEA" fill-opacity="0.1"/>
<path d="M19.9288 14.6465C21.1073 14.7475 22.2859 14.0404 23.0358 13.2323C23.7858 12.3232 24.2144 11.1111 24.1072 10C23.0358 10 21.7502 10.6061 21.0002 11.5152C20.3573 12.2222 19.7145 13.4343 19.9288 14.6465Z" fill="#EAEAEA"/>
<path d="M27.9643 16.8687C26.6786 15.0505 24.7501 14.8485 24.1072 14.8485C22.393 14.7475 20.893 15.7576 20.1431 15.7576C19.3931 15.7576 18.1074 14.8485 16.7146 14.8485C15.0003 14.8485 13.2861 15.8586 12.429 17.3737C10.5004 20.404 11.8933 24.9495 13.7146 27.4747C14.5718 28.6869 15.6432 30 17.036 30C18.3217 30 18.8574 29.1919 20.4645 29.1919C22.0716 29.1919 22.5001 30 23.893 30C25.2858 30 26.2501 28.7879 27.1072 27.5758C28.0714 26.1616 28.5 24.8485 28.5 24.7475C28.5 24.7475 25.7144 23.7374 25.7144 20.7071C25.7144 18.1818 27.8572 16.9697 27.9643 16.8687Z" fill="#EAEAEA"/>
</svg>
