<svg width="40" height="40" viewBox="0 0 40 40" fill="none" xmlns="http://www.w3.org/2000/svg">
<rect width="40" height="40" rx="10" fill="#EAEAEA" fill-opacity="0.1"/>
<path fill-rule="evenodd" clip-rule="evenodd" d="M27.1128 12.7039C27.3071 11.5778 27.5922 10.8696 27.908 10.8683H27.9086C28.4975 10.8703 28.9749 13.3261 28.9749 16.3582C28.9749 19.3903 28.4969 21.8481 27.9073 21.8481C27.6656 21.8481 27.4426 21.4308 27.263 20.7315C26.9793 23.2915 26.3904 25.0513 25.7087 25.0513C25.1813 25.0513 24.7079 23.9942 24.3901 22.327C24.1731 25.4977 23.627 27.7473 22.9887 27.7473C22.5881 27.7473 22.2228 26.8559 21.9525 25.4044C21.6273 28.4006 20.8762 30.5 20.0002 30.5C19.1243 30.5 18.3718 28.4013 18.048 25.4044C17.7796 26.8559 17.4144 27.7473 17.0118 27.7473C16.3735 27.7473 15.8287 25.4977 15.6103 22.327C15.2925 23.9942 14.8205 25.0513 14.2917 25.0513C13.6107 25.0513 13.0212 23.2921 12.7374 20.7315C12.5591 21.4328 12.3348 21.8481 12.0931 21.8481C11.5036 21.8481 11.0255 19.3903 11.0255 16.3582C11.0255 13.3261 11.5036 10.8683 12.0931 10.8683C12.4096 10.8683 12.6927 11.5784 12.889 12.7039C13.2034 10.7621 13.7142 9.5 14.2917 9.5C14.9774 9.5 15.5716 11.2849 15.8527 13.8767C16.1278 11.9903 16.5451 10.7878 17.0124 10.7878C17.6674 10.7878 18.2242 13.153 18.4305 16.4522C18.8184 14.7607 19.38 13.6995 20.0016 13.6995C20.6231 13.6995 21.1847 14.7613 21.5719 16.4522C21.7789 13.153 22.335 10.7878 22.99 10.7878C23.4567 10.7878 23.8733 11.9903 24.1497 13.8767C24.4302 11.2849 25.0244 9.5 25.7101 9.5C26.2856 9.5 26.7983 10.7628 27.1128 12.7039ZM9.5 15.8182C9.5 14.4628 9.77107 13.3638 10.1056 13.3638C10.4401 13.3638 10.7111 14.4628 10.7111 15.8182C10.7111 17.1736 10.4401 18.2727 10.1056 18.2727C9.77107 18.2727 9.5 17.1736 9.5 15.8182ZM29.2889 15.8182C29.2889 14.4628 29.5599 13.3638 29.8944 13.3638C30.2289 13.3638 30.5 14.4628 30.5 15.8182C30.5 17.1736 30.2289 18.2727 29.8944 18.2727C29.5599 18.2727 29.2889 17.1736 29.2889 15.8182Z" fill="#EAEAEA"/>
</svg>
