<svg width="40" height="40" viewBox="0 0 40 40" fill="none" xmlns="http://www.w3.org/2000/svg">
<rect width="40" height="40" rx="10" fill="#EAEAEA" fill-opacity="0.1"/>
<path d="M8.18 21.0909L8 22.3556L8.18 23.6203C8.18 23.7353 8.36 23.7353 8.36 23.6203L8.54 22.3556L8.36 21.0909C8.36 20.9184 8.18 20.9184 8.18 21.0909ZM9.26 20.286C9.26 20.1136 9.08 20.1136 9.08 20.286L8.78 22.3556L9.02 24.3676C9.02 24.5401 9.26 24.5401 9.26 24.3676L9.5 22.3556L9.26 20.286ZM12.8 18.5614L12.62 22.3556L12.74 24.6551C12.74 25.115 13.16 25.115 13.16 24.6551L13.4 22.3556L13.16 18.5614C13.16 18.274 12.8 18.274 12.8 18.5614ZM10.94 19.8261L10.7 22.3556L10.88 24.6551C10.88 25 11.18 25 11.18 24.6551L11.42 22.3556L11.18 19.8261C11.18 19.6537 10.94 19.6537 10.94 19.8261ZM15.14 24.6551L15.32 22.3556L15.14 17.2967C15.14 16.9518 14.72 16.9518 14.72 17.2967L14.54 22.3556L14.66 24.6551C14.66 25.115 15.14 25.115 15.14 24.6551ZM19.22 24.6551L19.34 22.3556L19.22 16.4919C19.22 16.0894 18.62 16.0894 18.62 16.4919L18.5 22.3556L18.62 24.6551C18.62 25.115 19.22 25.115 19.22 24.6551ZM17.18 24.6551L17.36 22.3556L17.18 17.2392C17.18 16.8943 16.64 16.8943 16.64 17.2392L16.52 22.3556L16.64 24.6551C16.64 25.115 17.18 25.115 17.18 24.6551ZM12.2 24.6551L12.38 22.3556L12.2 19.9986C12.2 19.8261 11.84 19.8261 11.84 19.9986L11.66 22.3556L11.84 24.6551C11.84 25.0575 12.2 25.0575 12.2 24.6551ZM10.22 24.6551L10.46 22.3556L10.22 19.8836C10.22 19.7112 9.98 19.7112 9.98 19.8836L9.74 22.3556L9.98 24.6551C9.98 24.885 10.22 24.885 10.22 24.6551ZM17.66 17.4691L17.54 22.3556L17.6 24.6551C17.6 25.115 18.2 25.115 18.2 24.6551L18.32 22.3556L18.2 17.4691C18.2 17.0667 17.66 17.0667 17.66 17.4691ZM14.18 24.6551L14.36 22.3556L14.18 17.6991C14.18 17.3542 13.76 17.3542 13.76 17.6991L13.58 22.3556L13.7 24.6551C13.7 25.115 14.18 25.115 14.18 24.6551ZM16.16 24.6551L16.34 22.3556L16.16 17.1242C16.16 16.7793 15.68 16.7793 15.68 17.1242L15.5 22.3556L15.68 24.6551C15.68 25.115 16.16 25.115 16.16 24.6551ZM27.92 19.5387C27.62 16.2619 24.08 14.1349 20.84 15.3421C20.6 15.4571 20.54 15.5146 20.54 15.687V24.6551C20.54 24.8275 20.66 25 20.84 25H29.06C30.68 25 32 23.7353 32 22.1831C32 20.0561 29.9 18.9063 27.92 19.5387ZM19.64 15.9745L19.46 22.3556L19.64 24.6551C19.64 25.115 20.24 25.115 20.24 24.6551L20.42 22.3556L20.24 15.9745C20.24 15.5721 19.64 15.5721 19.64 15.9745Z" fill="#EAEAEA"/>
</svg>
