<svg width="40" height="40" viewBox="0 0 40 40" fill="none" xmlns="http://www.w3.org/2000/svg">
<rect width="40" height="40" rx="10" fill="#EAEAEA" fill-opacity="0.1"/>
<path d="M19.9999 9C13.925 9 9 13.925 9 20.0001C9 26.0754 13.925 31 19.9999 31C26.0756 31 31 26.0754 31 20.0001C31 13.9253 26.0756 9.00053 19.9998 9.00053L19.9999 9ZM25.0444 24.8653C24.8474 25.1884 24.4244 25.2908 24.1013 25.0925C21.5186 23.5149 18.2674 23.1576 14.4384 24.0325C14.0695 24.1165 13.7017 23.8853 13.6176 23.5162C13.5331 23.1471 13.7634 22.7793 14.1333 22.6952C18.3235 21.7375 21.9177 22.1501 24.8172 23.9221C25.1403 24.1205 25.2428 24.5421 25.0444 24.8653ZM26.3908 21.8697C26.1425 22.2736 25.6145 22.401 25.2113 22.1527C22.2545 20.3349 17.7474 19.8085 14.2501 20.8702C13.7965 21.0072 13.3175 20.7516 13.1798 20.2988C13.0432 19.8452 13.2989 19.3671 13.7517 19.2291C17.7466 18.017 22.7129 18.6041 26.1084 20.6907C26.5117 20.939 26.6391 21.4669 26.3908 21.8697ZM26.5064 18.7507C22.9612 16.645 17.112 16.4513 13.7271 17.4787C13.1836 17.6435 12.6088 17.3367 12.4441 16.7931C12.2794 16.2493 12.586 15.6749 13.1299 15.5096C17.0155 14.3301 23.4748 14.558 27.5564 16.9811C28.0464 17.2713 28.2066 17.9027 27.9163 18.3909C27.6274 18.8799 26.9942 19.041 26.5069 18.7507H26.5064Z" fill="#EAEAEA"/>
</svg>
