<svg width="210" height="87" viewBox="0 0 210 87" fill="none" xmlns="http://www.w3.org/2000/svg">
<path d="M85.9189 13.3941C86.6349 13.2913 87.3958 13.2744 88.0292 13.5247C88.3689 13.6589 88.7096 13.8859 88.9556 14.2486C89.204 14.6149 89.2924 15.0265 89.2823 15.4167C89.2636 16.1361 88.9115 16.8799 88.4521 17.5863C87.5042 19.0441 85.6538 21.0018 82.7733 23.5115C82.3607 23.871 81.8794 24.2444 81.3903 24.6196C80.8923 25.0017 80.3784 25.392 79.8611 25.8109C78.8233 26.6515 77.8419 27.5535 77.1206 28.5612C76.4079 29.5569 75.976 30.6174 75.9711 31.7977C75.9662 32.9793 76.3886 34.4224 77.639 36.1834C78.947 38.0257 80.4259 40.003 81.0479 42.2196C81.2527 42.9495 81.3632 43.6953 81.3612 44.4635C87.6889 43.4103 93.3176 42.7249 97.1251 42.2429C98.3568 40.4936 99.9895 38.6836 101.599 37.1062C103.524 35.2189 105.493 33.5866 106.82 32.7339C118.023 25.5354 126.281 23.5915 132.944 23.1034C134.48 20.8529 136.271 18.7868 138.42 17.0574C140.007 15.7806 141.673 15.4183 143.086 15.9861C144.462 16.5391 145.287 17.8568 145.435 19.2533C145.586 20.6777 145.053 22.2282 143.719 23.3922C142.396 24.5476 140.37 25.255 137.609 25.255C136.528 25.255 135.404 25.2712 134.227 25.3308C133.236 26.8885 132.347 28.5474 131.529 30.2657C129.397 34.7451 127.823 39.4249 126.066 43.7448C125.466 45.2192 125.042 46.3652 124.763 47.2386C124.728 47.3492 124.697 47.4552 124.667 47.5552C125.133 47.1506 125.678 46.6474 126.285 46.0817C127.348 45.0925 128.563 43.961 129.679 43.1447C131.369 41.9083 132.889 41.5195 134.268 41.9443C135.558 42.3415 136.417 43.3737 136.998 44.1529C137.962 45.4454 138.799 45.7215 139.512 45.7517C139.917 45.7687 140.344 45.7075 140.827 45.6024C141.219 45.517 141.895 45.3379 142.36 45.249C145.201 44.7046 147.409 44.9102 149.212 45.5123C151.002 46.1099 152.315 47.0743 153.366 47.8958C154.488 48.773 155.156 49.3335 155.873 49.556C156.421 49.726 157.13 49.7235 158.35 48.886C163.262 45.5138 167.525 44.7906 170.888 45.6796C174.231 46.5635 176.486 48.9939 177.452 51.5216C178.384 53.9604 178.226 56.9602 175.963 58.4543C173.757 59.9098 170.283 59.401 165.831 56.6755C164.964 56.1446 164.298 55.5995 163.856 55.0266C163.407 54.445 163.133 53.7551 163.241 53.0152C163.348 52.2849 163.793 51.7522 164.261 51.3985C164.728 51.0457 165.297 50.8065 165.864 50.6528C166.991 50.3472 168.36 50.3104 169.522 50.6205C170.638 50.9184 171.975 51.68 172.149 53.2598C172.219 53.8921 171.766 54.4618 171.137 54.5322C170.508 54.6024 169.941 54.1466 169.871 53.5141C169.855 53.3654 169.719 53.0583 168.934 52.8487C168.196 52.6515 167.236 52.6676 166.461 52.8779C166.076 52.9822 165.801 53.1172 165.637 53.241C165.566 53.2939 165.532 53.3335 165.516 53.3558C165.528 53.3964 165.564 53.4803 165.666 53.6132C165.873 53.8802 166.282 54.2533 167.023 54.707C171.355 57.3589 173.706 57.1868 174.706 56.527C175.647 55.9055 176.074 54.3379 175.314 52.3483C174.587 50.4473 172.871 48.5869 170.305 47.9085C167.759 47.2353 164.175 47.6784 159.642 50.7901C158.019 51.9044 156.59 52.1899 155.197 51.7579C153.973 51.3781 152.895 50.4459 151.96 49.715C150.953 48.9282 149.894 48.1686 148.49 47.7C147.101 47.236 145.293 47.0333 142.788 47.5132C142.29 47.6087 141.96 47.7141 141.311 47.8553C140.754 47.9766 140.108 48.0839 139.417 48.0548C137.938 47.9925 136.492 47.316 135.164 45.5363C134.6 44.7792 134.122 44.31 133.597 44.1484C133.162 44.0145 132.391 44.0098 131.026 45.0082C130.041 45.7283 128.932 46.7575 127.841 47.7727C126.804 48.7382 125.721 49.7549 124.905 50.2807C124.691 50.4181 124.449 50.5539 124.194 50.6446C123.959 50.7283 123.571 50.8253 123.143 50.7008C122.635 50.5532 122.325 50.1737 122.18 49.7863C122.055 49.4497 122.046 49.0981 122.063 48.8118C122.1 48.2273 122.284 47.4648 122.582 46.5334C122.886 45.5808 123.334 44.3738 123.945 42.8716C125.625 38.7411 127.298 33.8179 129.462 29.2709C130.061 28.0123 130.705 26.768 131.406 25.5574C125.358 26.23 117.928 28.3314 108.054 34.6762C106.91 35.4113 105.066 36.9253 103.198 38.7566C102.175 39.7597 101.168 40.8351 100.282 41.9023C102.856 41.7044 104.879 41.7797 106.413 42.0591C107.416 42.2419 108.259 42.5208 108.919 42.9053C109.58 43.2906 110.12 43.8209 110.379 44.519C110.927 45.9991 109.987 47.3374 108.937 48.1831C107.815 49.0862 106.166 49.8091 104.224 50.1997C102.026 50.6418 100.272 50.7968 98.9131 50.6806C97.5738 50.566 96.4355 50.1704 95.7175 49.3197C94.9711 48.4351 94.9028 47.3311 95.1103 46.3293C95.2169 45.8151 95.4031 45.2859 95.6452 44.7531C91.7868 45.2404 86.6405 45.906 80.9905 46.8642C80.6908 47.8497 80.2008 48.8772 79.4859 49.9574C77.6173 52.7808 74.1987 56.0014 68.5982 59.9225C62.9812 63.8551 55.0896 68.5468 44.1881 74.2898C38.7013 77.1804 32.5575 79.5942 26.8936 81.2586C21.2531 82.9161 15.9931 83.8589 12.2978 83.7403C10.4866 83.6822 8.83353 83.3652 7.72968 82.5512C7.14558 82.1204 6.69901 81.5369 6.50559 80.795C6.31607 80.0676 6.39958 79.3027 6.65926 78.5473C7.16531 77.0754 8.42614 75.3876 10.3882 73.4631C12.3758 71.5136 15.1842 69.2257 18.9352 66.5656C27.8884 60.2163 46.2068 52.876 64.7514 47.9558C69.5339 46.6869 74.4362 45.6746 79.0518 44.8596C79.1056 44.1418 79.0204 43.478 78.8429 42.8453C78.3539 41.1026 77.1707 39.4895 75.7741 37.5225C74.32 35.4745 73.6722 33.5693 73.6795 31.7879C73.6869 30.0051 74.3504 28.4876 75.2609 27.2153C76.1628 25.9553 77.3333 24.8989 78.4237 24.0157C78.9706 23.5727 79.5155 23.159 80.0006 22.7868C80.4946 22.4079 80.9213 22.0755 81.2724 21.7695C84.1214 19.2873 85.769 17.502 86.5343 16.3252C86.7351 16.0164 86.8484 15.7873 86.9125 15.629C86.7594 15.6234 86.5408 15.6327 86.2426 15.6755C85.6786 15.7565 84.9541 15.9411 84.0854 16.2382C82.3512 16.8312 80.1525 17.8345 77.7091 19.194C72.8236 21.9123 67.0644 25.9931 62.2093 30.8711C57.3394 35.764 53.4747 41.3625 52.2055 47.1065C52.0682 47.7278 51.4566 48.1193 50.8389 47.9813C50.2212 47.8432 49.8319 47.2281 49.9692 46.6069C51.3734 40.2514 55.5771 34.2772 60.5898 29.2409C65.6173 24.1898 71.5551 19.9843 76.5999 17.1775C79.1216 15.7744 81.4476 14.7055 83.3477 14.0558C84.2959 13.7316 85.1664 13.5022 85.9189 13.3941ZM78.3521 47.3256C74.1161 48.0954 69.6748 49.0328 65.3362 50.1839C46.8707 55.0831 28.8702 62.3394 20.2555 68.4487C16.5592 71.0699 13.8572 73.2797 11.9882 75.1128C10.0938 76.9709 9.15119 78.3508 8.82471 79.3005C8.66816 79.7559 8.67846 80.0414 8.72252 80.2105C8.76272 80.3646 8.85691 80.5247 9.08505 80.6929C9.60635 81.0773 10.6661 81.3817 12.3709 81.4364C15.7077 81.5434 20.695 80.6787 26.2506 79.0462C31.7828 77.4205 37.784 75.0611 43.1244 72.2477C53.9856 66.5259 61.7836 61.8858 67.2891 58.0312C72.8111 54.1651 75.9484 51.1424 77.5778 48.6805C77.8908 48.2076 78.1457 47.7564 78.3521 47.3256ZM106.005 44.327C104.384 44.0317 101.928 43.9828 98.4439 44.4013C98.4272 44.4281 98.4104 44.4548 98.394 44.4815C97.8282 45.3991 97.4808 46.1847 97.3534 46.7997C97.2279 47.4054 97.3423 47.6825 97.4653 47.8282C97.6169 48.0078 98.0348 48.2924 99.1078 48.3842C100.162 48.4743 101.677 48.362 103.775 47.94C105.461 47.6009 106.742 46.9982 107.505 46.3841C108.335 45.7158 108.239 45.3454 108.231 45.324C108.213 45.2732 108.127 45.1071 107.77 44.8994C107.413 44.691 106.846 44.4803 106.005 44.327ZM142.236 18.1265C141.81 17.9557 141.007 17.9279 139.852 18.8564C138.365 20.0535 137.052 21.4413 135.876 22.9684C136.466 22.9557 137.043 22.9504 137.609 22.9504C140.003 22.9504 141.432 22.3379 142.218 21.6517C142.994 20.9743 143.227 20.1612 143.156 19.4979C143.083 18.8067 142.698 18.3123 142.236 18.1265Z" fill="#EAEAEA"/>
</svg>
