<svg width="750" height="750" viewBox="0 0 750 750" fill="none" xmlns="http://www.w3.org/2000/svg">
<rect width="750" height="750" rx="200" fill="#222023"/>
<path d="M326.667 608.333V591.667H293.333H260V575V558.333H243.333H226.667V525V491.667H210H193.333V458.333V425H176.667H160V375V325H193.333H226.667V341.667V358.333H243.333H260V241.667V125H293.333H326.667V141.667V158.333H343.333H360V216.667V275H410H460V216.667V158.333H493.333H526.667V175V191.667H543.333H560V375V558.333H543.333H526.667V575V591.667H493.333H460V608.333V625H393.333H326.667V608.333ZM460 575V558.333H493.333H526.667V375V191.667H510H493.333V233.333V275H476.667H460V291.667V308.333H443.333H426.667V350V391.667H410H393.333V350V308.333H376.667H360V350V391.667H343.333H326.667V275V158.333H310H293.333V291.667V425H276.667H260V408.333V391.667H243.333H226.667V375V358.333H210H193.333V391.667V425H210H226.667V458.333V491.667H243.333H260V525V558.333H293.333H326.667V575V591.667H393.333H460V575ZM460 350V308.333H476.667H493.333V350V391.667H476.667H460V350Z" fill="#CBB7D4"/>
</svg>
